<?xml version="1.0" encoding="iso-8859-1"?>
<!-- Generator: Adobe Illustrator 16.0.0, SVG Export Plug-In . SVG Version: 6.00 Build 0)  -->
<!DOCTYPE svg PUBLIC "-//W3C//DTD SVG 1.1//EN" "http://www.w3.org/Graphics/SVG/1.1/DTD/svg11.dtd">
<svg version="1.1" id="Capa_1" xmlns="http://www.w3.org/2000/svg" xmlns:xlink="http://www.w3.org/1999/xlink" x="0px" y="0px"
	 width="195.178px" height="195.179px" viewBox="0 0 195.178 195.179" style="enable-background:new 0 0 195.178 195.179;"
	 xml:space="preserve">
<g>
	<path d="M61.883,130.624c1.646,3.973,3.605,7.803,5.949,11.391l-23.534,15.374c-3.098-4.735-5.713-9.759-7.947-14.966
		c8.952-3.157,14.479-10.185,15.743-20.629c0.127-0.987,0.151-2.37,0.189-3.907c0.023-1.183,0.059-2.258,0.127-3.228
		C53.646,119.312,56.386,124.885,61.883,130.624z M171.779,64.468c-4.091,0-6.975-2.468-8.523-5.591
		c-1.975-0.018-4.48-1.502-6.614-3.984c-1.129-0.857-2.169-1.747-3.044-2.612c-0.095,0.271-0.178,0.579-0.254,0.896
		c-1.2,5.385,1.933,14.053,4.527,17.425c4.628,5.993,5.704,15.19,5.929,20.38c0.845,0.127,1.749,0.174,2.719,0.174
		c1.265,0,2.471-0.109,3.57-0.26c-0.225-0.97-0.379-2.016-0.426-3.118c-0.248-5.29,1.779-9.703,4.516-9.836
		c2.731-0.133,5.148,4.043,5.391,9.339c0.036,0.733,0.012,1.448-0.035,2.143c0.059-0.012,0.13-0.024,0.188-0.024
		c5.285,0,8.56,1.836,10.545,4.043c-0.887-12.214-3.848-23.737-8.435-34.173c-0.804,1.368-1.832,2.465-3.126,3.159
		C176.211,63.815,173.942,64.468,171.779,64.468z M113.096,35.839l-1.017,0.26c0.261,0.018,0.521,0.032,0.757,0.05
		C112.931,36.04,113.008,35.937,113.096,35.839z M28.218,107.555c-0.122-2.081-0.213-4.161-0.213-6.266
		c0-51.539,36.466-93.461,81.309-93.461c10.929,0,21.338,2.53,30.871,7.04c-6.088,1.058-13.187,3.759-19.677,10.024l-11.479,11.05
		C83.703,36.111,62.536,58.114,57.355,87.39c-2.305,0.284-5.284,0.931-8.57,2.196c0.091-0.579,0.139-1.179,0.168-1.797
		c0.242-5.29-1.779-9.696-4.507-9.835c-2.742-0.139-5.157,4.043-5.399,9.339c-0.127,2.684,0.337,5.146,1.173,6.93
		c-2.518,1.836-5.024,4.135-7.409,7.02l-0.254,0.313l-0.187,0.336C31.643,103.163,30.142,105.351,28.218,107.555z M101.866,23.427
		c0,4.043,3.08,7.317,6.895,7.317c3.804,0,6.889-3.274,6.889-7.317s-3.085-7.317-6.889-7.317
		C104.946,16.109,101.866,19.384,101.866,23.427z M53.324,58.218c2.161,1.797,6.41-0.139,9.466-4.327
		c3.062-4.179,3.794-9.02,1.64-10.805c-2.16-1.797-6.41,0.139-9.466,4.333C51.896,51.595,51.169,56.433,53.324,58.218z
		 M174.108,145.969c-1.123,0.633-2.323,0.964-3.512,0.964c-1.749,0-3.375-0.716-4.562-2.033c-2.43-2.654-2.519-7.318-2.312-10.107
		c-0.242-3.695,0.621-6.65,2.571-8.784c0.633-0.68,1.371-1.265,2.175-1.72c0.048-1.33,0.213-2.482,0.343-3.186
		c0.964-3.913,0.509-6.639-0.248-8.423c-2.27,1.501-4.918,2.429-7.412,3.05c-1.767,9.486-5.236,18.418-10.367,26.285l23.524,15.374
		c3.192-4.9,5.876-10.078,8.157-15.463c-1.076-1.158-1.88-2.506-2.382-4.008C178.546,143.386,174.627,145.679,174.108,145.969z
		 M194.039,113.844c0,0-4.463-5.331-5.852-14.257c0,0-0.343-7.034-12.2-5.157c0,0-9.457,3.101-16.834,0.169
		c0,0,0.526-13.982-5-21.134c-4.291-5.583-10.297-23.025-0.325-28.176c0,0,5.491,8.23,12.886,9.117c0,0,0.856,8.751,9.788,3.939
		c2.382-1.292,3.263-6.694,0.869-10.134l-1.892-2.761c0,0-4.978-15.462-9.457-19.943c0,0-1.555-7.705,0-11.322
		c0,0-2.755,1.542-3.606,3.085c0,0,0.344-4.648,1.2-5.494c0,0-8.423,5.166-8.931,8.074c0,0-17.029-4.977-30.949,8.429
		c0,0,5.35-1.386,7.223-0.688c0,0-17.022,9.629-20.108,20.966c0,0,5.509-3.621,7.206-3.092c0,0-12.2,10.657-9.963,29.214
		c0,0-1.374,3.777-15.64,4.457c0,0-22.163,0.174-30.759,12.729c0,0-14.248-1.037-25.263,12.369c0,0-9.788,17.022-21.468,14.776
		c0,0,11.499,5.325,17.014,0.526c0,0-2.071,9.108-31.977,15.279c0,0,43.695,17.401,47.446-13.571
		c0.588-4.918-1.386-20.451,9.1-17.531c0,0-4.809,16.16,18.037,31.445c0,0,5.337,6.194-0.497,19.423c0,0-2.932,9.291,8.577,10.485
		c0,0,10.657,4.457,15.125,13.914c0,0,3.777,1.892,6.706,1.892c0,0,2.057,7.554,6.014,6.348c0,0,10.982-1.028,6.869-5.484
		l-1.549-2.406c0,0,5.331,1.389,0-5.668c0,0-2.571-3.264-12.363-3.109c0,0-1.9-4.12-11.52-8.074c0,0-6.537-3.263,1.714-17.006
		c0,0,3.951-11.868,6.537-13.754c0,0-0.526-6.868,2.057-9.788c0,0,17.528,10.143,45.533-14.776l5.326,4.988
		c0,0,12.72-0.343,15.634-6.372c0,0,7.571,4.463,4.663,16.16c0,0-0.697,3.948,0.154,5.84c0,0-5.84-0.686-5.16,7.046
		c0,0-0.857,9.457,3.434,7.057c0,0,3.783-2.08,4.132-7.742c0,0,1.72-4.989,4.463-6.869c0,0,2.754-3.439-0.691-8.948
		c0,0-1.378-4.469-1.543-8.771c0,0-1.028-4.978-2.229-5.994c0,0,12.017-2.068,12.365,21.634l-2.062,0.697
		c0,0-6.012,10.651,1.892,14.605c0,0,2.754,1.194,3.954-3.098l0.851-9.279C192.999,128.106,197.112,120.381,194.039,113.844z"/>
</g>
<g>
</g>
<g>
</g>
<g>
</g>
<g>
</g>
<g>
</g>
<g>
</g>
<g>
</g>
<g>
</g>
<g>
</g>
<g>
</g>
<g>
</g>
<g>
</g>
<g>
</g>
<g>
</g>
<g>
</g>
</svg>
