<svg width="24" height="24" viewBox="0 0 24 24" fill="none" xmlns="http://www.w3.org/2000/svg">
<circle cx="12" cy="12" r="12" fill="#222F4A"/>
<path d="M16.9799 14.4869V15.9923C16.9804 16.1321 16.9518 16.2704 16.8958 16.3985C16.8398 16.5265 16.7577 16.6414 16.6548 16.7359C16.5518 16.8304 16.4302 16.9023 16.2978 16.9471C16.1654 16.9919 16.0251 17.0085 15.886 16.9959C14.3418 16.8281 12.8586 16.3005 11.5554 15.4554C10.343 14.685 9.31504 13.657 8.5446 12.4446C7.69655 11.1355 7.16879 9.64504 7.00407 8.09397C6.99153 7.95521 7.00802 7.81536 7.0525 7.68331C7.09697 7.55127 7.16845 7.42994 7.26238 7.32703C7.35632 7.22413 7.47065 7.14191 7.5981 7.08562C7.72555 7.02932 7.86333 7.00018 8.00266 7.00005H9.50806C9.75159 6.99765 9.98768 7.08389 10.1723 7.24269C10.357 7.40148 10.4776 7.622 10.5117 7.86315C10.5752 8.34491 10.693 8.81794 10.8629 9.27321C10.9304 9.45281 10.945 9.64801 10.905 9.83567C10.865 10.0233 10.772 10.1956 10.6371 10.332L9.99983 10.9693C10.7142 12.2256 11.7544 13.2658 13.0106 13.9801L13.6479 13.3428C13.7844 13.2079 13.9566 13.1149 14.1443 13.0749C14.3319 13.0349 14.5271 13.0495 14.7067 13.117C15.162 13.2869 15.635 13.4047 16.1168 13.4683C16.3605 13.5027 16.5832 13.6254 16.7423 13.8133C16.9014 14.0011 16.986 14.2408 16.9799 14.4869Z" stroke="white" stroke-linecap="round" stroke-linejoin="round"/>
</svg>
