<svg width="18" height="24" viewBox="0 0 18 24" fill="none" xmlns="http://www.w3.org/2000/svg">
<path d="M2.0716 2.74755C1.53759 2.18395 1.48081 0.681018 1.51917 0H6.445C7.29206 0 8.53196 0.266145 9.04603 0.399217V22.5675H2.87723V19.9139C2.92326 15.6399 5.38618 14.9589 6.19181 14.6301C6.83631 14.3671 6.99743 13.7534 6.99743 13.4795V10.1213L5.38618 12.6575H1.51917V2.74755H2.0716Z" fill="#EEEEEE"/>
<path d="M15.2379 22.5675H9.06906V0.39917C14.0225 2.18391 15.2455 6.77882 15.2379 8.85318V22.5675Z" fill="#B0B0B0"/>
<rect x="1.5192" y="16.908" width="15.2379" height="1.50294" fill="#D7D7D7"/>
<rect x="9.06906" y="16.908" width="7.68798" height="1.50294" fill="#EEEEEE"/>
<rect x="4.18927" y="5.58899" width="1.47315" height="1.50294" fill="#B0B0B0"/>
<rect x="1.5192" y="19.7731" width="15.2379" height="2.818" fill="#D7D7D7"/>
<rect x="9.06906" y="19.7731" width="7.68798" height="2.818" fill="#EEEEEE"/>
<rect y="22.5909" width="18" height="1.409" fill="#EEEEEE"/>
<rect x="9.06906" y="22.5909" width="8.93095" height="1.409" fill="#B0B0B0"/>
</svg>
