<svg width="35" height="47" viewBox="0 0 35 47" fill="none" xmlns="http://www.w3.org/2000/svg">
<path d="M4.02806 5.38063C2.9897 4.27691 2.87929 1.33366 2.95389 0H12.5319C14.179 0 16.5899 0.5212 17.5894 0.7818V44.1947H5.59456V38.998C5.68407 30.6282 10.4731 29.2945 12.0396 28.6507C13.2928 28.1356 13.6061 26.9338 13.6061 26.3973V19.8209L10.4731 24.7877H2.95389V5.38063H4.02806Z" fill="#FDBF00"/>
<path d="M29.6292 44.1946H17.6343V0.781738C27.266 4.27685 29.6441 13.2752 29.6292 17.3375V44.1946Z" fill="#FF9100"/>
<rect x="2.9541" y="33.1113" width="29.6292" height="2.94326" fill="#FFDA2D"/>
<rect x="17.6343" y="33.1113" width="14.9489" height="2.94326" fill="#FDBF00"/>
<rect x="8.14575" y="10.9451" width="2.86445" height="2.94325" fill="#3B4A51"/>
<rect x="2.9541" y="38.7222" width="29.6292" height="5.51859" fill="#FFDA2D"/>
<rect x="17.6343" y="38.7222" width="14.9489" height="5.51859" fill="#FDBF00"/>
<rect y="44.2407" width="35" height="2.7593" fill="#596C76"/>
<rect x="17.6343" y="44.2407" width="17.3657" height="2.7593" fill="#465A61"/>
</svg>
