<svg width="46" height="48" viewBox="0 0 46 48" fill="none" xmlns="http://www.w3.org/2000/svg">
<path d="M45.036 8.97861L43.8616 7.01205C43.8616 7.01205 44.0854 5.21502 42.6273 3.86339L42.3467 0.0412425L41.0051 2.79689L40.1097 0.0412425L38.8233 2.6289C38.8233 2.6289 31.8854 7.16308 28.9231 11.7312C28.411 11.5462 27.9112 11.3197 27.7272 11.0823C27.4604 10.7356 27.3439 9.76307 27.4926 9.35311C27.7287 8.69503 27.4957 5.92859 27.4957 5.92859C29.0734 5.89314 29.7128 4.13156 29.7128 4.13156L30.6082 4.56464C31.0237 3.90347 30.6618 2.296 30.4242 1.76738C29.078 -1.2626 25.9854 0.522094 25.9854 0.522094C23.9938 1.92766 25.5776 2.95255 25.5776 2.95255C24.6914 2.92635 22.0465 3.46114 20.9165 3.87572C18.7639 4.65711 14.9169 8.62567 14.9169 8.62567C12.9605 10.5552 14.0246 12.3184 14.0246 12.3184C14.4723 13.3402 17.6783 15.2651 19.0996 16.0773C19.0337 16.0712 18.9739 16.0712 18.908 16.0619C18.908 16.0619 14.7682 14.3743 10.9642 16.2869C10.9642 16.2869 5.48135 14.4884 3.69205 22.3577C3.69205 22.3577 3.35627 28.769 0 29.8941C0 29.8941 5.14557 31.5802 7.49604 22.8092C7.49604 22.8092 7.04833 20.9521 8.50338 20.0521C8.50338 20.0521 7.04833 22.7522 8.95109 26.5744C8.95109 26.5744 9.67785 28.991 6.65735 30.341C6.65735 30.341 4.02937 31.1286 4.6442 34.7273C4.6442 34.7273 3.86071 40.9691 5.09191 42.2652C5.09191 42.2652 5.31576 42.7137 4.70093 43.6138C4.70093 43.6138 2.91163 46.0288 6.37983 46.0288C6.37983 46.0288 9.75757 45.8285 7.61103 43.5567C6.14218 42.0032 5.65308 42.1512 6.49176 35.0679C6.49176 35.0679 7.4991 32.7623 8.33779 32.5943C8.33779 32.5943 12.5895 31.6957 13.5401 29.1081C13.5401 29.1081 15.2742 28.823 14.5474 31.7512C14.5474 31.7512 11.5821 34.6163 13.652 36.082C13.652 36.082 17.3441 39.5712 18.2395 39.8471C18.2395 39.8471 18.0724 40.6917 18.6872 41.2511C18.6872 41.2511 17.6799 41.7027 17.8485 42.4348C17.8485 42.4348 17.0098 43.9513 20.1422 43.9513C20.1422 43.9513 23.1075 44.0623 20.7019 41.8137C20.7019 41.8137 20.4213 39.0025 18.5753 38.554C18.5753 38.554 15.1071 35.4054 16.8979 33.4943C16.8979 33.4943 19.7497 30.8512 20.1974 28.5995C20.1974 28.5995 25.8505 29.7847 29.7066 28.433C29.7066 28.433 28.9783 31.7512 30.2663 33.9998C30.2663 33.9998 30.0424 38.665 30.9378 39.6205L31.0498 43.6708C31.0498 43.6708 30.2111 45.1288 30.8259 46.1429C30.8259 46.1429 30.0393 47.943 31.2721 48H34.0687C34.0687 48 35.0178 47.4945 34.1239 46.9874C34.1239 46.9874 35.4134 47.325 35.2999 46.4264C35.2999 46.4264 34.7403 44.2888 33.6195 43.5598C33.6195 43.5598 33.1718 39.9627 33.5091 38.0516C33.5091 38.0516 34.8507 32.8794 35.4103 30.0652C35.4103 30.0652 38.2054 26.2446 37.8696 23.5999C37.8482 23.4288 37.8298 23.2809 37.8114 23.1499C37.7976 23.062 37.7884 22.9896 37.7792 22.9202L38.2023 13.7625C38.2023 13.7625 38.2023 10.3888 40.5513 10.5013C40.5513 10.5013 41.39 11.7944 42.6212 12.3569C42.6212 12.3569 44.0195 14.3789 45.9774 12.5819C45.9866 12.5788 46.209 11.1733 45.036 8.97861ZM25.1483 9.01713C25.1483 9.01713 25.4243 10.976 25.8229 11.2596C25.8229 11.2596 24.6776 11.1902 24.4905 10.8419C24.3403 10.566 24.282 9.28376 24.282 9.28376L25.1483 9.01713ZM22.2689 10.3688L22.8116 12.5187C23.6917 14.0969 27.3454 13.4558 27.7333 13.3849C27.1338 13.9859 26.1342 14.7935 24.6715 15.3869C23.6549 13.9721 21.4777 12.2768 21.4777 12.2768C20.0073 10.8743 22.2689 10.3688 22.2689 10.3688Z" fill="#141D31"/>
</svg>
