<svg width="130" height="113" viewBox="0 0 130 113" fill="none" xmlns="http://www.w3.org/2000/svg">
<path fill-rule="evenodd" clip-rule="evenodd" d="M20.6968 19.5206C19.2511 19.1487 16.3371 17.487 16.2466 13.815C16.17 10.7098 17.2241 8.66785 17.8844 7.3886C18.2001 6.77696 18.4258 6.33966 18.395 6.04386C18.2995 5.12936 18.4876 1.59494 18.8508 0C18.7035 0.768388 18.52 3.01452 18.9646 5.85191C20.0938 6.22526 22.4063 7.82671 22.6233 11.2457C22.8403 14.6646 21.4294 18.1869 20.6968 19.5206ZM23.0782 29.4644C24.7825 29.7107 28.628 29.2338 30.3758 25.3555C31.8538 22.0757 31.6516 19.4277 31.5249 17.7688C31.4643 16.9756 31.421 16.4085 31.5869 16.1066C32.0996 15.1731 33.4893 11.3176 33.8205 9.454C33.6316 10.3395 32.8164 12.8181 31.0676 15.6483C29.6991 15.5444 26.5202 16.2246 24.7517 19.7766C22.9833 23.3287 22.8992 27.7152 23.0782 29.4644ZM33.2344 39.0134C31.4866 42.8917 27.6411 43.3687 25.9368 43.1224C25.7578 41.3732 25.8419 36.9867 27.6103 33.4346C29.3788 29.8826 32.5577 29.2024 33.9261 29.3063C35.675 26.4761 36.4902 23.9975 36.6791 23.112C36.3479 24.9756 34.9582 28.8311 34.4455 29.7645C34.2796 30.0665 34.3229 30.6336 34.3835 31.4267C34.5102 33.0857 34.7124 35.7337 33.2344 39.0134ZM29.7408 55.1416C31.6002 55.4103 35.7957 54.8899 37.7025 50.6587C39.3151 47.0804 39.0945 44.1914 38.9562 42.3815C38.8901 41.5161 38.8429 40.8974 39.0238 40.568C39.5833 39.5496 41.0995 35.3432 41.4608 33.3099C41.2546 34.2761 40.3653 36.9803 38.4573 40.068C36.9643 39.9547 33.496 40.6968 31.5666 44.5721C29.6372 48.4474 29.5455 53.2332 29.7408 55.1416ZM44.1384 62.3392C42.853 67.3876 38.3173 68.7813 36.2101 68.8471C35.6236 66.7761 34.7952 61.4691 36.1748 56.8098C37.5543 52.1504 41.2431 50.6535 42.9151 50.4875C44.424 46.7027 44.8816 43.5406 44.9218 42.4326C44.9174 44.7502 44.0589 49.6948 43.6384 50.9295C43.5024 51.3289 43.6748 52.0034 43.916 52.9469C44.4204 54.9202 45.2254 58.07 44.1384 62.3392ZM44.5183 83.0127C46.7938 82.9416 51.6918 81.4366 53.0799 75.9849C54.2537 71.3747 53.3844 67.9733 52.8397 65.8424C52.5793 64.8235 52.3931 64.0951 52.54 63.6638C52.994 62.3305 53.9211 56.9909 53.9258 54.4882C53.8825 55.6846 53.3883 59.0994 51.7589 63.1865C49.9534 63.3658 45.9698 64.9822 44.4801 70.0138C42.9904 75.0454 43.8849 80.7762 44.5183 83.0127ZM62.3952 87.3518C61.3413 93.2717 56.2379 95.2602 53.8179 95.5144C52.9681 93.1801 51.5671 87.1415 52.7622 81.6614C53.9573 76.1812 58.0773 74.1458 59.9879 73.8131C61.4056 69.3287 61.6657 65.6501 61.6185 64.3713C61.8089 67.0394 61.2376 72.8038 60.8577 74.2606C60.7348 74.7318 60.9902 75.4937 61.3473 76.5593C62.0943 78.788 63.2865 82.3455 62.3952 87.3518ZM38.5711 105.569C45.2689 107.629 50.0513 103.376 51.6052 100.992C49.639 98.8626 44.1272 94.1841 37.81 92.5059C31.4927 90.8278 27.186 94.0315 25.8223 95.8432C20.4184 94.9278 16.4669 93.2369 15.1667 92.5059C17.8306 94.1269 24.1098 96.606 25.8223 96.9874C26.3763 97.1108 27.0298 97.7828 27.9438 98.7229C29.8555 100.689 32.9069 103.827 38.5711 105.569ZM28.3027 88.5579C34.1292 90.7487 38.592 87.2064 40.095 85.1614C38.4652 83.1577 33.8281 78.6925 28.3187 76.8621C22.8092 75.0316 18.8234 77.6631 17.5192 79.2077C12.7788 78.106 9.36652 76.389 8.25293 75.6681C10.5279 77.2549 15.9613 79.798 17.4588 80.2287C17.9431 80.3679 18.4867 81.0021 19.247 81.889C20.8372 83.7441 23.3754 86.7052 28.3027 88.5579ZM31.2308 70.8441C29.5768 72.5456 24.9893 75.254 19.8716 72.4758C15.5437 70.1264 13.571 67.0571 12.335 65.1342C11.7441 64.2149 11.3216 63.5576 10.8907 63.3663C9.55855 62.775 4.85013 59.721 2.94545 57.9587C3.88493 58.7695 6.82657 60.7986 11.0773 62.4282C12.4831 61.1648 16.5122 59.2389 21.3823 61.6425C26.2523 64.0461 29.9771 68.7784 31.2308 70.8441ZM15.5483 57.889C20.1728 60.9242 24.7285 58.7245 26.4283 57.2452C25.4048 55.1907 22.2529 50.4163 17.8332 47.7553C13.4136 45.0942 9.44809 46.5976 8.01781 47.6819C4.12319 45.8025 1.49916 43.6488 0.673965 42.8069C2.3376 44.6258 6.55294 47.8897 7.76715 48.555C8.1599 48.7702 8.50788 49.4258 8.9946 50.3428C10.0126 52.2608 11.6375 55.3222 15.5483 57.889ZM21.5414 42.5661C19.8647 43.7114 15.556 45.201 11.7344 41.9971C8.50262 39.2877 7.3689 36.3762 6.65862 34.5521C6.31903 33.68 6.07623 33.0565 5.7472 32.8225C4.73 32.0992 1.2986 28.7337 0 26.9303C0.650452 27.7708 2.7737 29.975 6.06309 32.0674C7.45707 31.2473 11.1644 30.3189 14.8419 33.1662C18.5193 36.0136 20.8405 40.6192 21.5414 42.5661ZM10.3075 27.4086C13.5441 30.651 17.6069 29.6391 19.2337 28.7278C18.7503 26.8895 17.0001 22.4868 13.8664 19.5823C10.7328 16.6779 7.26572 17.2253 5.92388 17.8621C3.08408 15.6799 1.32023 13.4904 0.793289 12.6685C1.83516 14.4242 4.70167 17.7826 5.57366 18.5272C5.85572 18.7681 6.0273 19.3583 6.26728 20.1839C6.76922 21.9105 7.57041 24.6666 10.3075 27.4086ZM64.9805 112.303C52.8438 101.027 28.8969 71.3998 22.2394 36.896C25.885 53.5479 37.4074 81.5629 65.0197 108.43V108.47C92.6037 81.6151 104.117 53.6187 107.761 36.9747C101.096 71.5158 77.1047 101.17 64.9805 112.418V112.303ZM109.125 27.4606C108.828 30.6655 108.366 33.8402 107.761 36.9747C108.597 33.1552 109.019 29.9335 109.125 27.4606ZM22.2394 36.896C21.4032 33.0764 20.9814 29.8548 20.8749 27.3819C21.1725 30.5868 21.6346 33.7615 22.2394 36.896ZM109.303 19.5998C110.749 19.2279 113.663 17.5661 113.754 13.8942C113.83 10.7889 112.776 8.74702 112.116 7.46777C111.8 6.85613 111.574 6.41884 111.605 6.12303C111.701 5.20853 111.513 1.67411 111.149 0.0791713C111.297 0.84756 111.48 3.09369 111.036 5.93109C109.906 6.30444 107.594 7.90588 107.377 11.3248C107.16 14.7438 108.571 18.266 109.303 19.5998ZM106.922 29.5436C105.218 29.7899 101.372 29.3129 99.6244 25.4346C98.1464 22.1549 98.3486 19.5069 98.4753 17.848C98.5359 17.0548 98.5792 16.4877 98.4133 16.1858C97.9005 15.2523 96.5109 11.3968 96.1796 9.53317C96.3686 10.4187 97.1838 12.8973 98.9326 15.7275C100.301 15.6236 103.48 16.3038 105.248 19.8558C107.017 23.4079 107.101 27.7944 106.922 29.5436ZM96.7658 39.0926C98.5136 42.9709 102.359 43.4479 104.063 43.2016C104.242 41.4523 104.158 37.0658 102.39 33.5138C100.621 29.9617 97.4425 29.2815 96.0741 29.3855C94.3252 26.5553 93.51 24.0767 93.3211 23.1911C93.6523 25.0548 95.042 28.9103 95.5547 29.8437C95.7206 30.1457 95.6773 30.7127 95.6167 31.5059C95.49 33.1649 95.2878 35.8128 96.7658 39.0926ZM100.258 55.2203C98.3991 55.489 94.2036 54.9687 92.2968 50.7374C90.6842 47.1591 90.9048 44.2701 91.0431 42.4602C91.1092 41.5949 91.1564 40.9762 90.9755 40.6467C90.416 39.6283 88.8998 35.4219 88.5385 33.3887C88.7447 34.3548 89.634 37.059 91.542 40.1468C93.035 40.0334 96.5033 40.7755 98.4327 44.6508C100.362 48.5262 100.454 53.3119 100.258 55.2203ZM85.8618 62.4184C87.1472 67.4667 91.6829 68.8605 93.79 68.9263C94.3766 66.8552 95.2049 61.5483 93.8254 56.8889C92.4459 52.2296 88.757 50.7327 87.085 50.5667C85.5762 46.7819 85.1186 43.6198 85.0784 42.5118C85.0828 44.8294 85.9413 49.774 86.3617 51.0087C86.4977 51.4081 86.3253 52.0826 86.0842 53.0261C85.5798 54.9994 84.7748 58.1492 85.8618 62.4184ZM85.4819 83.0919C83.2064 83.0208 78.3084 81.5157 76.9203 76.0641C75.7464 71.4539 76.6158 68.0525 77.1605 65.9215C77.4209 64.9027 77.607 64.1742 77.4602 63.743C77.0062 62.4097 76.0791 57.0701 76.0743 54.5673C76.1177 55.7638 76.6118 59.1785 78.2413 63.2657C80.0468 63.4449 84.0304 65.0614 85.5201 70.0929C87.0098 75.1245 86.1153 80.8554 85.4819 83.0919ZM67.605 87.431C68.6589 93.3509 73.7623 95.3393 76.1823 95.5936C77.0321 93.2593 78.433 87.2207 77.238 81.7406C76.0429 76.2604 71.9229 74.225 70.0123 73.8923C68.5946 69.4079 68.3345 65.7292 68.3817 64.4505C68.1913 67.1186 68.7626 72.8829 69.1425 74.3398C69.2653 74.811 69.01 75.5729 68.6529 76.6385C67.9059 78.8672 66.7137 82.4247 67.605 87.431ZM91.4291 105.648C84.7313 107.708 79.9489 103.455 78.395 101.071C80.3612 98.9418 85.8729 94.2633 92.1902 92.5851C98.5075 90.9069 102.814 94.1107 104.178 95.9224C109.582 95.007 113.533 93.3161 114.833 92.5851C112.17 94.206 105.89 96.6852 104.178 97.0666C103.624 97.1899 102.97 97.862 102.056 98.802L102.056 98.8021C100.145 100.768 97.0932 103.906 91.4291 105.648ZM101.698 88.6371C95.8709 90.8279 91.4082 87.2856 89.9051 85.2406C91.535 83.2368 96.172 78.7717 101.682 76.9412C107.191 75.1108 111.177 77.7423 112.481 79.2869C117.221 78.1852 120.634 76.4681 121.747 75.7473C119.472 77.3341 114.039 79.8772 112.541 80.3078C112.057 80.4471 111.514 81.0812 110.753 81.9681L110.753 81.9682C109.163 83.8233 106.625 86.7843 101.698 88.6371ZM98.7694 70.9233C100.423 72.6248 105.011 75.3332 110.129 72.555C114.456 70.2056 116.429 67.1363 117.665 65.2134L117.665 65.2133C118.256 64.294 118.679 63.6367 119.109 63.4455C120.442 62.8542 125.15 59.8002 127.055 58.0379C126.115 58.8487 123.174 60.8778 118.923 62.5074C117.517 61.244 113.488 59.3181 108.618 61.7217C103.748 64.1253 100.023 68.8576 98.7694 70.9233ZM114.452 57.9677C109.827 61.0029 105.272 58.8032 103.572 57.324C104.595 55.2694 107.747 50.4951 112.167 47.834C116.587 45.173 120.552 46.6763 121.982 47.7607C125.877 45.8813 128.501 43.7275 129.326 42.8856C127.663 44.7046 123.447 47.9684 122.233 48.6337C121.84 48.8489 121.492 49.5045 121.006 50.4215L121.006 50.4215C119.988 52.3395 118.363 55.4009 114.452 57.9677ZM108.459 42.6449C110.135 43.7901 114.444 45.2797 118.266 42.0758C121.498 39.3665 122.631 36.4549 123.342 34.6309C123.681 33.7587 123.924 33.1352 124.253 32.9012C125.27 32.1779 128.702 28.8125 130 27.009C129.35 27.8496 127.226 30.0537 123.937 32.1461C122.543 31.326 118.836 30.3976 115.158 33.245C111.481 36.0923 109.16 40.6979 108.459 42.6449ZM119.693 27.4878C116.456 30.7302 112.393 29.7182 110.766 28.807C111.25 26.9687 113 22.566 116.134 19.6615C119.267 16.757 122.734 17.3045 124.076 17.9413C126.916 15.7591 128.68 13.5696 129.207 12.7476C128.165 14.5033 125.299 17.8618 124.427 18.6064C124.144 18.8473 123.973 19.4375 123.733 20.2631C123.231 21.9897 122.43 24.7458 119.693 27.4878Z" fill="#F5F5F5"/>
<path fill-rule="evenodd" clip-rule="evenodd" d="M96.2083 97C96.2083 97 96.2083 96.9999 96.2083 96.9999C96.2083 79.5454 82.0587 65.3958 64.6042 65.3958C47.1497 65.3958 33 79.5454 33 96.9999C33 96.9999 33 97 33 97H96.2083Z" fill="#2A4158"/>
<g filter="url(#filter0_d)">
<circle cx="63.7498" cy="46.6041" r="17.0833" fill="#2A4158"/>
</g>
<g filter="url(#filter1_d)">
<path fill-rule="evenodd" clip-rule="evenodd" d="M85.1042 38.5758C85.1043 38.547 85.1043 38.5183 85.1043 38.4895C85.1043 26.46 75.5437 16.7083 63.7502 16.7083C51.9566 16.7083 42.396 26.46 42.396 38.4895C42.396 38.4895 42.396 38.4896 42.396 38.4896H85.1042V38.5758Z" fill="#2A4158"/>
</g>
<g filter="url(#filter2_d)">
<path d="M83.3958 39.7708C80.0044 56.6523 75.3077 61.1259 64.3794 64.5416C49.9135 61.1948 46.653 54.3756 43.25 39.7708" stroke="#2A4158" stroke-width="2"/>
</g>
<rect x="61.1875" y="15" width="6.83333" height="2.5625" fill="#2A4158"/>
<defs>
<filter id="filter0_d" x="42.6665" y="29.5208" width="42.1667" height="42.1667" filterUnits="userSpaceOnUse" color-interpolation-filters="sRGB">
<feFlood flood-opacity="0" result="BackgroundImageFix"/>
<feColorMatrix in="SourceAlpha" type="matrix" values="0 0 0 0 0 0 0 0 0 0 0 0 0 0 0 0 0 0 127 0"/>
<feOffset dy="4"/>
<feGaussianBlur stdDeviation="2"/>
<feColorMatrix type="matrix" values="0 0 0 0 0 0 0 0 0 0 0 0 0 0 0 0 0 0 0.25 0"/>
<feBlend mode="normal" in2="BackgroundImageFix" result="effect1_dropShadow"/>
<feBlend mode="normal" in="SourceGraphic" in2="effect1_dropShadow" result="shape"/>
</filter>
<filter id="filter1_d" x="38.396" y="16.7083" width="50.7083" height="29.8675" filterUnits="userSpaceOnUse" color-interpolation-filters="sRGB">
<feFlood flood-opacity="0" result="BackgroundImageFix"/>
<feColorMatrix in="SourceAlpha" type="matrix" values="0 0 0 0 0 0 0 0 0 0 0 0 0 0 0 0 0 0 127 0"/>
<feOffset dy="4"/>
<feGaussianBlur stdDeviation="2"/>
<feColorMatrix type="matrix" values="0 0 0 0 0 0 0 0 0 0 0 0 0 0 0 0 0 0 0.25 0"/>
<feBlend mode="normal" in2="BackgroundImageFix" result="effect1_dropShadow"/>
<feBlend mode="normal" in="SourceGraphic" in2="effect1_dropShadow" result="shape"/>
</filter>
<filter id="filter2_d" x="38.2759" y="39.5439" width="50.1002" height="34.0332" filterUnits="userSpaceOnUse" color-interpolation-filters="sRGB">
<feFlood flood-opacity="0" result="BackgroundImageFix"/>
<feColorMatrix in="SourceAlpha" type="matrix" values="0 0 0 0 0 0 0 0 0 0 0 0 0 0 0 0 0 0 127 0"/>
<feOffset dy="4"/>
<feGaussianBlur stdDeviation="2"/>
<feColorMatrix type="matrix" values="0 0 0 0 0 0 0 0 0 0 0 0 0 0 0 0 0 0 0.25 0"/>
<feBlend mode="normal" in2="BackgroundImageFix" result="effect1_dropShadow"/>
<feBlend mode="normal" in="SourceGraphic" in2="effect1_dropShadow" result="shape"/>
</filter>
</defs>
</svg>
