<svg width="24" height="24" viewBox="0 0 24 24" fill="none" xmlns="http://www.w3.org/2000/svg">
<circle cx="12" cy="12" r="12" fill="#222F4A"/>
<path d="M12 4C7.584 4 4 7.584 4 12C4 16.416 7.584 20 12 20C16.416 20 20 16.416 20 12C20 7.584 16.416 4 12 4ZM12 6.4C13.328 6.4 14.4 7.472 14.4 8.8C14.4 10.128 13.328 11.2 12 11.2C10.672 11.2 9.6 10.128 9.6 8.8C9.6 7.472 10.672 6.4 12 6.4ZM12 17.76C10 17.76 8.232 16.736 7.2 15.184C7.224 13.592 10.4 12.72 12 12.72C13.592 12.72 16.776 13.592 16.8 15.184C15.768 16.736 14 17.76 12 17.76Z" fill="white"/>
</svg>
