<svg width="33" height="27" viewBox="0 0 33 27" fill="none" xmlns="http://www.w3.org/2000/svg">
<path d="M28.4774 12.5468L31.0748 3.03813C18.9578 -2.46422 6.6447 0.745487 2.00278 3.03813L4.31852 12.5468C14.9835 7.98265 24.8682 10.6451 28.4774 12.5468Z" fill="#FFDA2D"/>
<path d="M2.84021 1.98586C2.67207 1.30668 1.99216 0.894157 1.3216 1.06445L1.21416 1.09174C0.543596 1.26204 0.136297 1.95067 0.304436 2.62984L6.03316 25.7703C6.2013 26.4495 6.88121 26.862 7.55177 26.6917L7.65921 26.6644C8.32978 26.4941 8.73707 25.8055 8.56894 25.1263L2.84021 1.98586Z" fill="#FDBF00"/>
<path fill-rule="evenodd" clip-rule="evenodd" d="M17.7749 10.0332V0C21.9592 0.120857 26.5308 0.959093 31.0748 3.02255L28.4774 12.5312C26.4969 11.4877 22.6267 10.2151 17.7749 10.0332Z" fill="#FDBF00"/>
<path d="M30.1598 1.98586C30.3279 1.30668 31.0078 0.894157 31.6784 1.06445L31.7858 1.09174C32.4564 1.26203 32.8637 1.95067 32.6956 2.62984L26.9668 25.7703C26.7987 26.4495 26.1188 26.862 25.4482 26.6917L25.3408 26.6644C24.6702 26.4941 24.2629 25.8055 24.4311 25.1263L30.1598 1.98586Z" fill="#FF9100"/>
<path d="M10.5819 5.65031L9.02131 5.92663L9.20603 6.99684L11.0375 6.67255L11.1517 7.33389L8.50737 7.80209L7.81775 3.80664L10.4567 3.33939L10.5717 4.00622L8.74565 4.32955L8.91 5.28176L10.4706 5.00544L10.5819 5.65031Z" fill="white"/>
<path d="M12.9055 6.13697L13.523 3.01305L14.4375 2.92468L13.4297 7.09654L12.5727 7.17936L10.8096 3.27527L11.7214 3.18716L12.9055 6.13697Z" fill="white"/>
<path d="M17.3967 5.1714L15.8126 5.19895L15.8311 6.28524L17.6901 6.2529L17.7015 6.92416L15.0174 6.97085L14.9487 2.91541L17.6272 2.86881L17.6387 3.54565L15.7852 3.57789L15.8015 4.5444L17.3856 4.51685L17.3967 5.1714Z" fill="white"/>
<path d="M21.3633 7.16062L20.5403 7.1004L19.1281 4.32136L18.9382 6.98317L18.1153 6.92294L18.4038 2.87744L19.2268 2.93766L20.6414 5.72246L20.8317 3.0551L21.6519 3.11512L21.3633 7.16062Z" fill="white"/>
<path d="M25.2978 4.40779L24.0892 4.1953L23.5186 7.52463L22.7056 7.3817L23.2762 4.05237L22.0838 3.84274L22.1982 3.17578L25.4121 3.74083L25.2978 4.40779Z" fill="white"/>
</svg>
