<svg width="54" height="44" viewBox="0 0 54 44" fill="none" xmlns="http://www.w3.org/2000/svg">
<path d="M46.5995 20.4467L50.8497 4.95103C31.0219 -4.01577 10.8732 1.21487 3.27734 4.95103L7.06675 20.4467C24.5185 13.0088 40.6935 17.3475 46.5995 20.4467Z" fill="#EEEEEE"/>
<path d="M4.64759 3.23622C4.37246 2.12942 3.25988 1.45715 2.16259 1.73467L1.98679 1.77914C0.889499 2.05666 0.22301 3.17888 0.498146 4.28568L9.87243 41.996C10.1476 43.1029 11.2601 43.7751 12.3574 43.4976L12.5332 43.4531C13.6305 43.1756 14.297 42.0534 14.0219 40.9466L4.64759 3.23622Z" fill="#E1E1E1"/>
<path fill-rule="evenodd" clip-rule="evenodd" d="M50.8496 4.92563L46.5994 20.4213C43.3585 18.7206 37.0255 16.6467 29.0862 16.3503V0C35.9332 0.196953 43.414 1.56297 50.8496 4.92563Z" fill="#E1E1E1"/>
<path d="M49.3524 3.23622C49.6275 2.12942 50.7401 1.45715 51.8374 1.73467L52.0132 1.77914C53.1105 2.05666 53.777 3.17888 53.5019 4.28568L44.1276 41.996C43.8524 43.1029 42.7399 43.7751 41.6426 43.4976L41.4668 43.4531C40.3695 43.1756 39.703 42.0534 39.9781 40.9466L49.3524 3.23622Z" fill="#B0B0B0"/>
<path d="M17.3159 9.20787L14.7622 9.65817L15.0644 11.4022L18.0615 10.8737L18.2483 11.9515L13.9212 12.7145L12.7927 6.20337L17.1109 5.44193L17.2993 6.52861L14.3111 7.05552L14.58 8.60727L17.1337 8.15697L17.3159 9.20787Z" fill="#9A9A9A"/>
<path d="M21.1181 10.0009L22.1285 4.91009L23.625 4.76607L21.9758 11.5647L20.5735 11.6996L17.6885 5.3374L19.1804 5.19381L21.1181 10.0009Z" fill="#9A9A9A"/>
<path d="M28.4672 8.42741L25.8752 8.47232L25.9054 10.2426L28.9474 10.1899L28.966 11.2838L24.574 11.3599L24.4614 4.75098L28.8445 4.67504L28.8633 5.77804L25.8302 5.83058L25.857 7.40564L28.4491 7.36073L28.4672 8.42741Z" fill="#9A9A9A"/>
<path d="M34.9583 11.6692L33.6116 11.5711L31.3007 7.04226L30.99 11.38L29.6433 11.2819L30.1155 4.68921L31.4622 4.78735L33.7769 9.32554L34.0883 4.97873L35.4305 5.07654L34.9583 11.6692Z" fill="#9A9A9A"/>
<path d="M41.3964 7.18302L39.4186 6.83674L38.4849 12.2623L37.1546 12.0294L38.0883 6.60381L36.1372 6.26219L36.3242 5.17529L41.5834 6.09611L41.3964 7.18302Z" fill="#9A9A9A"/>
</svg>
