<svg width="55" height="53" viewBox="0 0 55 53" fill="none" xmlns="http://www.w3.org/2000/svg">
<g clip-path="url(#clip0)" filter="url(#filter0_d)">
<path d="M38.5323 2.9563H16.4676C15.9549 2.9563 15.481 3.22985 15.2246 3.67397L4.19229 22.7825C3.9359 23.2266 3.9359 23.7737 4.19229 24.2178L15.2246 43.3265C15.481 43.7706 15.9549 44.0441 16.4676 44.0441H38.5323C39.0451 44.0441 39.5189 43.7706 39.7753 43.3265L50.8077 24.2178C51.0641 23.7737 51.0641 23.2266 50.8077 22.7825L39.7753 3.67397C39.5189 3.22985 39.0451 2.9563 38.5323 2.9563Z" fill="#FFD45D"/>
<path d="M51.0001 23.5H41.5928L34.5464 35.7047L39.2501 43.8516C39.4647 43.7276 39.6473 43.5483 39.7754 43.3262L50.8077 24.2176C50.936 23.9956 51.0001 23.7478 51.0001 23.5Z" fill="#FF6500"/>
<path d="M34.5463 35.7048H20.4537L15.75 43.8517C15.9646 43.9756 16.2113 44.044 16.4677 44.044H38.5323C38.7887 44.044 39.0354 43.9756 39.25 43.8517L34.5463 35.7048Z" fill="#FF9416"/>
<path d="M20.4537 35.7047L13.4073 23.5H4C4 23.7478 4.06407 23.9956 4.19231 24.2177L15.2246 43.3263C15.3529 43.5483 15.5354 43.7277 15.75 43.8516L20.4537 35.7047Z" fill="#F4B93D"/>
<path d="M20.4537 11.2952L15.75 3.14819C15.5354 3.27212 15.3528 3.45149 15.2246 3.67355L4.19231 22.7823C4.06407 23.0042 4 23.2521 4 23.4998H13.4073L20.4537 11.2952Z" fill="#FFD45D"/>
<path d="M20.4537 11.2956H34.5463L39.25 3.14861C39.0354 3.02469 38.7887 2.9563 38.5323 2.9563H16.4677C16.2113 2.9563 15.9646 3.02469 15.75 3.14861L20.4537 11.2956Z" fill="#F4B93D"/>
<path d="M34.5464 11.2952L41.5928 23.4998H51.0001C51.0001 23.2521 50.936 23.0042 50.8077 22.7823L39.7754 3.67355C39.6473 3.45149 39.4647 3.27212 39.2501 3.14819L34.5464 11.2952Z" fill="#FF9416"/>
<path d="M34.5464 11.2952H20.4536L13.4072 23.4998L20.4536 35.7045H34.5464L41.5927 23.4998L34.5464 11.2952Z" fill="#FF7B05"/>
<path d="M20.7077 10.4408L21.606 9.76986C21.8105 9.61721 22.0809 9.84523 21.965 10.0725L21.4555 11.0713C21.4011 11.178 21.4333 11.3085 21.5311 11.3776L22.4468 12.0246C22.6552 12.1718 22.5219 12.4995 22.2699 12.4594L21.1626 12.2834C21.0442 12.2646 20.93 12.3356 20.8945 12.4501L20.5621 13.5209C20.4865 13.7645 20.1336 13.739 20.0939 13.487L19.919 12.3796C19.9003 12.2612 19.7975 12.1746 19.6778 12.1761L18.5566 12.1909C18.3015 12.1943 18.2167 11.8508 18.4441 11.7351L19.4433 11.2266C19.5501 11.1722 19.6007 11.0478 19.5622 10.9343L19.2017 9.87268C19.1196 9.63107 19.4201 9.44435 19.6005 9.62483L20.3928 10.418C20.4777 10.5028 20.6117 10.5125 20.7077 10.4408Z" fill="white"/>
</g>
<defs>
<filter id="filter0_d" x="0" y="0" width="55" height="55" filterUnits="userSpaceOnUse" color-interpolation-filters="sRGB">
<feFlood flood-opacity="0" result="BackgroundImageFix"/>
<feColorMatrix in="SourceAlpha" type="matrix" values="0 0 0 0 0 0 0 0 0 0 0 0 0 0 0 0 0 0 127 0"/>
<feOffset dy="4"/>
<feGaussianBlur stdDeviation="2"/>
<feColorMatrix type="matrix" values="0 0 0 0 0 0 0 0 0 0 0 0 0 0 0 0 0 0 0.1 0"/>
<feBlend mode="normal" in2="BackgroundImageFix" result="effect1_dropShadow"/>
<feBlend mode="normal" in="SourceGraphic" in2="effect1_dropShadow" result="shape"/>
</filter>
<clipPath id="clip0">
<rect width="47" height="47" fill="white" transform="translate(4)"/>
</clipPath>
</defs>
</svg>
