<svg width="33" height="32" viewBox="0 0 33 32" fill="none" xmlns="http://www.w3.org/2000/svg">
<g clip-path="url(#clip0)" filter="url(#filter0_d)">
<path d="M22.3683 1.57239H10.6317C10.359 1.57239 10.1069 1.7179 9.97055 1.95413L4.10228 12.1182C3.96591 12.3545 3.96591 12.6455 4.10228 12.8817L9.97055 23.0459C10.1069 23.2821 10.359 23.4276 10.6317 23.4276H22.3683C22.641 23.4276 22.8931 23.2821 23.0294 23.0459L28.8977 12.8817C29.0341 12.6455 29.0341 12.3545 28.8977 12.1182L23.0294 1.95413C22.8931 1.7179 22.641 1.57239 22.3683 1.57239Z" fill="#FAF9F9"/>
<path d="M29 12.5H23.9961L20.248 18.9918L22.75 23.3253C22.8642 23.2594 22.9613 23.164 23.0294 23.0458L28.8977 12.8817C28.9659 12.7636 29 12.6318 29 12.5Z" fill="#8D8986"/>
<path d="M20.248 18.9918H12.752L10.25 23.3253C10.3642 23.3912 10.4954 23.4276 10.6317 23.4276H22.3683C22.5046 23.4276 22.6358 23.3912 22.75 23.3253L20.248 18.9918Z" fill="#B0B0B0"/>
<path d="M12.752 18.9918L9.00386 12.5H4C4 12.6318 4.03408 12.7636 4.10229 12.8817L9.97056 23.0459C10.0388 23.164 10.1358 23.2594 10.25 23.3253L12.752 18.9918Z" fill="#E9E9E9"/>
<path d="M12.752 6.00818L10.25 1.67468C10.1358 1.7406 10.0387 1.83601 9.97056 1.95413L4.10229 12.1183C4.03408 12.2364 4 12.3682 4 12.5H9.00386L12.752 6.00818Z" fill="#FAF9F9"/>
<path d="M12.752 6.00818H20.248L22.75 1.67468C22.6358 1.60876 22.5046 1.57239 22.3683 1.57239H10.6317C10.4954 1.57239 10.3642 1.60876 10.25 1.67468L12.752 6.00818Z" fill="#E9E9E9"/>
<path d="M20.248 6.00818L23.9961 12.5H29C29 12.3682 28.9659 12.2364 28.8977 12.1183L23.0294 1.95413C22.9613 1.83601 22.8642 1.7406 22.75 1.67468L20.248 6.00818Z" fill="#B0B0B0"/>
<path d="M20.2481 6.00806H12.7519L9.00385 12.4999L12.7519 18.9917H20.2481L23.9961 12.4999L20.2481 6.00806Z" fill="#E1DEDB"/>
<path d="M12.887 5.55356L13.3648 5.19667C13.4736 5.11547 13.6174 5.23676 13.5558 5.35766L13.2848 5.88891C13.2558 5.9457 13.2729 6.01508 13.325 6.05185L13.8121 6.39599C13.9229 6.47431 13.852 6.64862 13.718 6.62729L13.129 6.53368C13.066 6.52367 13.0053 6.56142 12.9864 6.62231L12.8096 7.19189C12.7693 7.32148 12.5816 7.3079 12.5605 7.17387L12.4675 6.58481C12.4575 6.52187 12.4029 6.47577 12.3392 6.4766L11.7428 6.48446C11.6071 6.48627 11.562 6.30356 11.683 6.24203L12.2145 5.97153C12.2712 5.94262 12.2982 5.87641 12.2777 5.81606L12.0859 5.25136C12.0423 5.12284 12.2021 5.02353 12.298 5.11952L12.7195 5.54145C12.7646 5.58652 12.8359 5.59169 12.887 5.55356Z" fill="white"/>
</g>
<defs>
<filter id="filter0_d" x="0" y="0" width="33" height="33" filterUnits="userSpaceOnUse" color-interpolation-filters="sRGB">
<feFlood flood-opacity="0" result="BackgroundImageFix"/>
<feColorMatrix in="SourceAlpha" type="matrix" values="0 0 0 0 0 0 0 0 0 0 0 0 0 0 0 0 0 0 127 0"/>
<feOffset dy="4"/>
<feGaussianBlur stdDeviation="2"/>
<feColorMatrix type="matrix" values="0 0 0 0 0 0 0 0 0 0 0 0 0 0 0 0 0 0 0.1 0"/>
<feBlend mode="normal" in2="BackgroundImageFix" result="effect1_dropShadow"/>
<feBlend mode="normal" in="SourceGraphic" in2="effect1_dropShadow" result="shape"/>
</filter>
<clipPath id="clip0">
<rect width="25" height="25" fill="white" transform="translate(4)"/>
</clipPath>
</defs>
</svg>
