<svg width="132" height="115" viewBox="0 0 132 115" fill="none" xmlns="http://www.w3.org/2000/svg">
<path fill-rule="evenodd" clip-rule="evenodd" d="M21.0152 19.8209C19.5473 19.4433 16.5885 17.756 16.4966 14.0276C16.4188 10.8745 17.489 8.8012 18.1595 7.50226C18.4801 6.88122 18.7093 6.4372 18.678 6.13684C18.5811 5.20828 18.772 1.61948 19.1408 0C18.9912 0.780213 18.8049 3.0609 19.2564 5.94195C20.4029 6.32104 22.751 7.94712 22.9714 11.4187C23.1917 14.8902 21.759 18.4667 21.0152 19.8209ZM23.4333 29.9177C25.1638 30.1678 29.0685 29.6835 30.8431 25.7455C32.3439 22.4153 32.1385 19.7266 32.0099 18.0422C31.9484 17.2368 31.9044 16.661 32.0728 16.3544C32.5935 15.4066 34.0046 11.4918 34.3409 9.59944C34.149 10.4986 33.3213 13.0154 31.5455 15.8891C30.156 15.7835 26.9282 16.4742 25.1325 20.0809C23.3369 23.6876 23.2515 28.1416 23.4333 29.9177ZM33.7457 39.6136C31.971 43.5516 28.0664 44.0359 26.3358 43.7858C26.1541 42.0097 26.2394 37.5557 28.0351 33.949C29.8308 30.3423 33.0586 29.6516 34.4481 29.7571C36.2239 26.8834 37.0515 24.3667 37.2434 23.4675C36.9071 25.3598 35.496 29.2746 34.9754 30.2225C34.807 30.529 34.8509 31.1049 34.9125 31.9102C35.0411 33.5947 35.2464 36.2834 33.7457 39.6136ZM30.1984 55.9899C32.0864 56.2628 36.3464 55.7344 38.2826 51.438C39.9199 47.8047 39.6959 44.8713 39.5556 43.0335V43.0334C39.4885 42.1548 39.4405 41.5266 39.6242 41.1921C40.1923 40.158 41.7318 35.8869 42.0987 33.8224C41.8893 34.8034 40.9863 37.5492 39.0489 40.6845C37.533 40.5693 34.0114 41.3229 32.0523 45.2578C30.0932 49.1928 30 54.0521 30.1984 55.9899ZM44.8174 63.2983C43.5122 68.4243 38.9068 69.8395 36.7672 69.9063C36.1716 67.8034 35.3306 62.4148 36.7313 57.6838C38.132 52.9527 41.8777 51.4328 43.5754 51.2642C45.1075 47.4212 45.5721 44.2104 45.6129 43.0854C45.6084 45.4387 44.7367 50.4594 44.3098 51.713C44.1717 52.1186 44.3468 52.8035 44.5916 53.7615C45.1037 55.7652 45.9212 58.9634 44.8174 63.2983ZM45.2032 84.2898C47.5137 84.2177 52.487 82.6894 53.8965 77.1539C55.0884 72.4728 54.2057 69.019 53.6526 66.8553C53.3882 65.8208 53.1992 65.0812 53.3483 64.6432C53.8093 63.2894 54.7507 57.8677 54.7555 55.3264C54.7114 56.5413 54.2097 60.0086 52.5552 64.1586C50.7219 64.3406 46.677 65.9819 45.1644 71.0909C43.6518 76.1999 44.56 82.0189 45.2032 84.2898ZM63.3552 88.6957C62.285 94.7067 57.1031 96.7257 54.6459 96.9839C53.7829 94.6137 52.3605 88.4822 53.5739 82.9177C54.7874 77.3532 58.9708 75.2865 60.9108 74.9487C62.3503 70.3953 62.6144 66.6601 62.5665 65.3616C62.7598 68.0708 62.1797 73.9238 61.794 75.4031C61.6692 75.8816 61.9285 76.6551 62.2911 77.7371C63.0496 80.0002 64.2602 83.6124 63.3552 88.6957ZM39.1645 107.193C45.9654 109.284 50.8213 104.966 52.3992 102.546C50.4027 100.384 44.8061 95.6331 38.3917 93.9291C31.9772 92.2251 27.6043 95.4782 26.2196 97.3177C20.7325 96.3883 16.7203 94.6714 15.4 93.9291C18.1049 95.575 24.4808 98.0922 26.2196 98.4795C26.7821 98.6048 27.4456 99.2872 28.3736 100.242L28.3737 100.242L28.3737 100.242C30.3148 102.238 33.4132 105.425 39.1645 107.193ZM28.7381 89.9203C34.6543 92.1449 39.1857 88.5481 40.7119 86.4716C39.057 84.437 34.3486 79.9032 28.7543 78.0446C23.1601 76.1859 19.113 78.858 17.7888 80.4263C12.9754 79.3077 9.51063 77.5642 8.3799 76.8323C10.6899 78.4435 16.2069 81.0257 17.7274 81.4629C18.2192 81.6044 18.7711 82.2483 19.5431 83.1489C21.1577 85.0325 23.735 88.0391 28.7381 89.9203ZM31.7113 71.934C30.0318 73.6617 25.3737 76.4117 20.1773 73.5908C15.7829 71.2053 13.7797 68.0888 12.5248 66.1363C11.9248 65.2028 11.4958 64.5354 11.0583 64.3412C9.7056 63.7408 4.92474 60.6398 2.99076 58.8504C3.94469 59.6737 6.93159 61.734 11.2478 63.3887C12.6752 62.1058 16.7663 60.1503 21.7112 62.5909C26.6562 65.0314 30.4383 69.8365 31.7113 71.934ZM15.7875 58.7796C20.4831 61.8615 25.1089 59.6279 26.8349 58.1259C25.7956 56.0398 22.5952 51.192 18.1076 48.49C13.6199 45.788 9.59345 47.3145 8.14116 48.4155C4.18663 46.5072 1.52222 44.3203 0.684341 43.4654C2.37357 45.3124 6.65376 48.6265 7.88665 49.302C8.28544 49.5205 8.63878 50.1862 9.13299 51.1173C10.1666 53.0648 11.8165 56.1733 15.7875 58.7796ZM21.8728 43.221C20.1704 44.3839 15.7954 45.8964 11.915 42.6432C8.63343 39.8921 7.48226 36.9358 6.76106 35.0837C6.41624 34.1982 6.16972 33.565 5.83562 33.3275C4.80277 32.593 1.31858 29.1758 0 27.3446C0.660461 28.1981 2.81637 30.4362 6.15636 32.5607C7.5718 31.728 11.3362 30.7854 15.0702 33.6765C18.8042 36.5676 21.1611 41.2441 21.8728 43.221ZM10.4661 27.8303C13.7525 31.1226 17.8778 30.0951 19.5296 29.1698C19.0388 27.3032 17.2616 22.8328 14.0798 19.8836C10.8979 16.9344 7.3775 17.4903 6.01502 18.1369C3.13153 15.9212 1.34055 13.698 0.805496 12.8634C1.86339 14.6461 4.77401 18.0562 5.65941 18.8123C5.9458 19.0568 6.12002 19.6561 6.3637 20.4944L6.3637 20.4944C6.87336 22.2476 7.68687 25.0461 10.4661 27.8303ZM65.9801 114.03C53.6567 102.582 29.3415 72.4983 22.5815 37.4636C26.2833 54.3717 37.9829 82.8178 66.02 110.098V110.139C94.0284 82.8707 105.719 54.4436 109.419 37.5435C102.651 72.616 78.2909 102.727 65.9801 114.147V114.03ZM110.804 27.8831C110.502 31.1372 110.033 34.3608 109.419 37.5435C110.268 33.6652 110.696 30.394 110.804 27.8831ZM22.5815 37.4636C21.7325 33.5853 21.3042 30.3141 21.196 27.8032C21.4982 31.0573 21.9674 34.2809 22.5815 37.4636ZM110.985 19.9013C112.453 19.5237 115.412 17.8364 115.504 14.1079C115.581 10.9549 114.511 8.88155 113.841 7.58261C113.52 6.96156 113.291 6.51754 113.322 6.21719C113.419 5.28862 113.228 1.69982 112.859 0.0803454C113.009 0.860558 113.195 3.14124 112.744 6.02229C111.597 6.40138 109.249 8.02746 109.029 11.499C108.808 14.9706 110.241 18.547 110.985 19.9013ZM108.567 29.9981C106.836 30.2482 102.932 29.7639 101.157 25.8259C99.6563 22.4957 99.8616 19.807 99.9903 18.1225C100.052 17.3171 100.096 16.7413 99.9273 16.4347C99.4067 15.4869 97.9956 11.5721 97.6593 9.67979C97.8512 10.5789 98.6789 13.0957 100.455 15.9694C101.844 15.8639 105.072 16.5545 106.868 20.1612C108.663 23.7679 108.749 28.2219 108.567 29.9981ZM98.2545 39.694C100.029 43.6319 103.934 44.1163 105.664 43.8662C105.846 42.09 105.761 37.636 103.965 34.0293C102.169 30.4226 98.9416 29.732 97.5521 29.8375C95.7763 26.9638 94.9486 24.447 94.7567 23.5479C95.093 25.4402 96.5041 29.355 97.0248 30.3028C97.1932 30.6094 97.1492 31.1852 97.0877 31.9906C96.9591 33.675 96.7537 36.3638 98.2545 39.694ZM101.801 56.0698C99.9129 56.3427 95.6528 55.8143 93.7167 51.5179C92.0793 47.8846 92.3034 44.9512 92.4437 43.1134C92.5108 42.2347 92.5588 41.6065 92.3751 41.272C91.807 40.2379 90.2675 35.9668 89.9006 33.9023C90.1099 34.8833 91.013 37.6291 92.9504 40.7644C94.4663 40.6492 97.9879 41.4028 99.947 45.3377C101.906 49.2727 101.999 54.132 101.801 56.0698ZM87.1827 63.3786C88.4879 68.5046 93.0934 69.9198 95.2329 69.9867C95.8286 67.8838 96.6696 62.4952 95.2689 57.7641C93.8681 53.0331 90.1225 51.5132 88.4248 51.3446C86.8927 47.5016 86.4281 44.2908 86.3873 43.1658C86.3917 45.519 87.2635 50.5397 87.6904 51.7934C87.8285 52.1989 87.6534 52.8838 87.4085 53.8418C86.8964 55.8455 86.079 59.0437 87.1827 63.3786ZM86.797 84.3702C84.4865 84.298 79.5131 82.7698 78.1037 77.2343C76.9117 72.5531 77.7945 69.0994 78.3475 66.9357L78.3475 66.9356C78.6119 65.9011 78.801 65.1615 78.6519 64.7236C78.1908 63.3698 77.2495 57.948 77.2447 55.4068C77.2887 56.6217 77.7905 60.0889 79.4449 64.2389C81.2783 64.421 85.3231 66.0623 86.8358 71.1713C88.3484 76.2803 87.4401 82.0993 86.797 84.3702ZM68.645 88.776C69.7152 94.787 74.8971 96.8061 77.3543 97.0642C78.2172 94.694 79.6397 88.5625 78.4262 82.9981C77.2128 77.4336 73.0294 75.3668 71.0894 75.029C69.6499 70.4756 69.3858 66.7404 69.4337 65.442C69.2404 68.1511 69.8205 74.0042 70.2062 75.4834C70.3309 75.9619 70.0717 76.7355 69.709 77.8175C68.9506 80.0805 67.74 83.6927 68.645 88.776ZM92.8357 107.273C86.0348 109.365 81.1789 105.047 79.601 102.626C81.5975 100.464 87.194 95.7134 93.6085 94.0094C100.023 92.3055 104.396 95.5585 105.781 97.398C111.268 96.4686 115.28 94.7517 116.6 94.0094C113.895 95.6553 107.519 98.1726 105.781 98.5599C105.218 98.6851 104.555 99.3675 103.626 100.322C101.685 102.318 98.587 105.505 92.8357 107.273ZM103.262 90.0007C97.3459 92.2252 92.8144 88.6284 91.2883 86.5519C92.9432 84.5174 97.6516 79.9835 103.246 78.1249C108.84 76.2663 112.887 78.9383 114.211 80.5067C119.025 79.388 122.49 77.6445 123.62 76.9126C121.31 78.5238 115.793 81.1061 114.273 81.5433C113.781 81.6847 113.229 82.3286 112.457 83.2292C110.842 85.1128 108.265 88.1194 103.262 90.0007ZM100.289 72.0144C101.968 73.742 106.626 76.4921 111.823 73.6712C116.217 71.2856 118.22 68.1691 119.475 66.2167C120.075 65.2831 120.504 64.6157 120.942 64.4215C122.295 63.8211 127.075 60.7201 129.009 58.9307C128.055 59.754 125.069 61.8143 120.752 63.469C119.325 62.1862 115.234 60.2306 110.289 62.6712C105.344 65.1118 101.562 69.9169 100.289 72.0144ZM116.213 58.8595C111.517 61.9414 106.891 59.7078 105.165 58.2058C106.205 56.1197 109.405 51.2719 113.893 48.5699C118.38 45.8679 122.407 47.3944 123.859 48.4954C127.814 46.5871 130.478 44.4002 131.316 43.5453C129.627 45.3923 125.346 48.7064 124.114 49.3819C123.715 49.6004 123.361 50.2661 122.867 51.1972C121.834 53.1447 120.184 56.2532 116.213 58.8595ZM110.127 43.3009C111.83 44.4638 116.205 45.9763 120.085 42.7231C123.367 39.972 124.518 37.0157 125.239 35.1636C125.584 34.2781 125.83 33.6449 126.165 33.4074C127.197 32.6729 130.682 29.2557 132 27.4245C131.34 28.278 129.184 30.5161 125.844 32.6406C124.428 31.8079 120.664 30.8652 116.93 33.7564C113.196 36.6475 110.839 41.324 110.127 43.3009ZM121.534 27.9106C118.248 31.2029 114.122 30.1754 112.471 29.2501C112.961 27.3835 114.739 22.9131 117.92 19.9639C121.102 17.0148 124.623 17.5707 125.985 18.2172C128.869 16.0015 130.66 13.7783 131.195 12.9437C130.137 14.7264 127.226 18.1365 126.341 18.8926C126.054 19.1372 125.88 19.7365 125.636 20.5747C125.127 22.328 124.313 25.1264 121.534 27.9106Z" fill="#F5F5F5"/>
<path d="M31.3461 19.7164L34.0658 23.44L33.7975 19.3184L36.6522 23.1762C53.1044 20.1185 58.8002 40.0705 58.8002 40.0705C67.3489 48.3196 80.1744 45.5247 80.1744 45.5247C90.7997 43.5284 96.3594 50.8453 96.3594 50.8453C107.236 51.5089 107.76 64.8111 107.76 64.8111C107.625 72.132 112.422 76.6513 112.422 76.6513C101.799 76.7856 99.9871 62.82 99.9871 62.82C99.079 52.308 97.1346 53.9029 97.1346 53.9029C99.2119 62.1501 88.9753 70.5272 88.9753 70.5272C89.3683 71.8587 91.1841 72.2578 91.1841 72.2578C96.1022 75.0509 93.2557 76.116 93.2557 76.116C91.5749 78.9157 89.1068 78.3823 89.1068 78.3823C89.3643 81.5742 85.9963 83.9685 85.9963 83.9685C84.0558 88.7567 79.915 92.3482 79.915 92.3482C79.1402 92.3482 78.7494 93.2804 78.7494 93.2804C78.7494 95.8094 75.5085 95.8093 75.5085 95.8093C73.2997 95.8093 73.0482 95.1416 73.0482 95.1416C73.4369 91.8151 78.2278 90.8865 78.2278 90.8865C80.1705 89.4252 78.7494 89.0216 78.7494 89.0216C75.7679 89.8174 77.5837 85.5626 77.5837 85.5626C77.7148 80.5117 81.7248 79.4426 81.7248 79.4426C83.4077 79.0416 83.5406 78.1133 83.5406 78.1133C80.9475 75.8515 79.7839 68.6671 79.7839 68.6671C78.2278 68.932 76.034 67.2058 76.034 67.2058C68.1284 71.4606 52.845 66.2732 52.845 66.2732C52.845 70.1288 50.9013 75.3202 50.9013 75.3202C51.8051 84.7668 50.6416 88.089 50.6416 88.089C49.606 90.4829 49.477 90.353 49.477 90.353C51.4164 93.0118 48.7 93.411 48.7 93.411H46.2401C42.0933 93.1421 44.685 91.0167 44.685 91.0167C48.6961 88.3583 48.1817 84.9015 48.1817 84.9015C48.0541 82.7717 47.5304 72.9263 47.5304 72.9263C47.2718 68.6715 45.8507 67.3335 45.8507 67.3335C44.4232 69.3308 36.0088 70.2594 36.0088 70.2594C33.2881 75.1797 39.6322 79.8359 39.6322 79.8359C40.8001 77.7061 42.6159 80.235 42.6159 80.235C44.4235 84.095 43.2578 84.2249 43.2578 84.2249C41.7035 84.3574 39.1182 81.9656 39.1182 81.9656C34.1962 80.9031 31.6001 71.8513 31.6001 71.8513C30.0447 66.9288 37.5631 65.7361 37.5631 65.7361C43.7816 63.3421 41.4484 61.3422 41.4484 61.3422C37.9504 56.1559 40.8001 53.0932 40.8001 53.0932C42.2276 51.4968 42.0936 48.4374 42.0936 48.4374C39.5026 42.7165 39.6326 35.6686 39.6326 35.6686C38.8606 38.5953 35.3579 40.856 35.3579 40.856C35.3579 40.856 36.1338 35.8022 35.3579 41.3884C34.5831 46.9742 30.1762 44.0458 30.1762 44.0458C27.0689 42.0561 29.6557 37.1325 29.6557 37.1325C29.5217 31.6762 32.2474 25.4277 32.2474 25.4277L31.3461 19.7164Z" fill="#141D31"/>
</svg>
