<svg width="43" height="43" viewBox="0 0 43 43" fill="none" xmlns="http://www.w3.org/2000/svg">
<circle cx="21.5" cy="21.5" r="21.5" fill="#222F4A"/>
<path d="M30.4583 18.8125C30.4583 25.0833 22.3958 30.4583 22.3958 30.4583C22.3958 30.4583 14.3333 25.0833 14.3333 18.8125C14.3333 16.6742 15.1827 14.6235 16.6947 13.1115C18.2067 11.5994 20.2574 10.75 22.3958 10.75C24.5341 10.75 26.5848 11.5994 28.0968 13.1115C29.6088 14.6235 30.4583 16.6742 30.4583 18.8125Z" stroke="#F2F2F2" stroke-linecap="round" stroke-linejoin="round"/>
<path d="M22.3958 21.5C23.88 21.5 25.0833 20.2968 25.0833 18.8125C25.0833 17.3282 23.88 16.125 22.3958 16.125C20.9115 16.125 19.7083 17.3282 19.7083 18.8125C19.7083 20.2968 20.9115 21.5 22.3958 21.5Z" stroke="#F2F2F2" stroke-linecap="round" stroke-linejoin="round"/>
</svg>
