<svg width="53" height="60" viewBox="0 0 53 60" fill="none" xmlns="http://www.w3.org/2000/svg">
<path d="M0 47.5453V54.5964C0 57.5171 2.36762 59.8847 5.28834 59.8847C8.20906 59.8847 10.5767 57.5171 10.5767 54.5964V45.7824H1.76271C0.789469 45.7824 0 46.5719 0 47.5453ZM51.6063 0.068758C50.8539 -0.146372 50.0432 0.161636 49.6267 0.827863C48.3424 2.87993 45.0853 2.87993 43.8013 0.827863C43.1575 -0.201544 41.4567 -0.201544 40.8129 0.827863C39.5287 2.87993 36.2716 2.87993 34.9873 0.827863C34.3435 -0.201544 32.6427 -0.201544 31.9989 0.827863C30.7147 2.87993 27.4576 2.87993 26.1736 0.827863C25.5298 -0.201544 23.829 -0.201544 23.1852 0.827863C21.9009 2.87993 18.6438 2.87993 17.3598 0.827863C16.9432 0.15985 16.1323 -0.148158 15.3802 0.068758C14.6244 0.285674 14.1029 0.975914 14.1029 1.76261V54.5964C14.1029 56.6113 13.3964 58.4485 12.2541 59.9347H44.0702C48.9299 59.9347 52.8842 55.9804 52.8842 51.1208V1.7628C52.8838 0.976113 52.362 0.285674 51.6063 0.068758ZM33.4929 24.6791C30.5768 24.6791 28.2046 22.3069 28.2046 19.3907C28.2046 17.0956 29.6827 15.1572 31.7302 14.4271V12.3395C31.7302 11.365 32.5187 10.5768 33.4929 10.5768C34.4672 10.5768 35.2557 11.3652 35.2557 12.3395V14.4271C37.3032 15.1572 38.7813 17.0956 38.7813 19.3907C38.7813 20.3652 37.9928 21.1534 37.0186 21.1534C36.0441 21.1534 35.2559 20.365 35.2559 19.3907C35.2559 18.4181 34.4658 17.628 33.4931 17.628C32.5205 17.628 31.7304 18.4183 31.7304 19.3907C31.7304 20.3634 32.5205 21.1534 33.4931 21.1534C36.4093 21.1534 38.7815 23.5256 38.7815 26.4418C38.7815 28.737 37.3034 30.6753 35.2559 31.4054V33.4928C35.2559 34.4673 34.4674 35.2555 33.4931 35.2555C32.5189 35.2555 31.7304 34.4671 31.7304 33.4928V31.4054C29.6829 30.6753 28.2048 28.737 28.2048 26.4418C28.2048 25.4673 28.9933 24.6791 29.9675 24.6791C30.942 24.6791 31.7302 25.4675 31.7302 26.4418C31.7302 27.4144 32.5203 28.2045 33.4929 28.2045C34.4656 28.2045 35.2557 27.4144 35.2557 26.4418C35.2559 25.4691 34.4656 24.6791 33.4929 24.6791ZM44.0698 49.358H22.9163C21.9418 49.358 21.1536 48.5696 21.1536 47.5953C21.1536 46.6209 21.942 45.8326 22.9163 45.8326H44.0698C45.0443 45.8326 45.8325 46.6211 45.8325 47.5953C45.8325 48.5696 45.0441 49.358 44.0698 49.358ZM44.0698 42.3068H22.9163C21.9418 42.3068 21.1536 41.5183 21.1536 40.5441C21.1536 39.5696 21.942 38.7814 22.9163 38.7814H44.0698C45.0443 38.7814 45.8325 39.5698 45.8325 40.5441C45.8325 41.5183 45.0441 42.3068 44.0698 42.3068Z" fill="url(#paint0_linear)"/>
<defs>
<linearGradient id="paint0_linear" x1="26.4419" y1="9.11189e-05" x2="26.4419" y2="59.9347" gradientUnits="userSpaceOnUse">
<stop stop-color="#C8DBF7"/>
<stop offset="1" stop-color="#A2B8E0"/>
</linearGradient>
</defs>
</svg>
