<svg width="67" height="56" viewBox="0 0 67 56" fill="none" xmlns="http://www.w3.org/2000/svg">
<path d="M64.417 5.78467V22.5347H47.667" stroke="#8C9EA3" stroke-width="5" stroke-linecap="round" stroke-linejoin="round"/>
<path d="M3 50.4517V33.7017H19.75" stroke="#8C9EA3" stroke-width="5" stroke-linecap="round" stroke-linejoin="round"/>
<path d="M10.0071 19.7434C11.4229 15.7423 13.8292 12.1651 17.0015 9.3456C20.1738 6.52606 24.0086 4.55607 28.1481 3.61945C32.2877 2.68283 36.597 2.8101 40.6741 3.98939C44.7511 5.16868 48.463 7.36155 51.4633 10.3634L64.4167 22.5351M3 33.7017L15.9533 45.8734C18.9537 48.8752 22.6655 51.0681 26.7426 52.2474C30.8196 53.4267 35.129 53.554 39.2685 52.6173C43.4081 51.6807 47.2429 49.7107 50.4151 46.8912C53.5874 44.0716 55.9937 40.4945 57.4096 36.4934" stroke="#8C9EA3" stroke-width="5" stroke-linecap="round" stroke-linejoin="round"/>
</svg>
