<svg width="48" height="60" viewBox="0 0 48 60" fill="none" xmlns="http://www.w3.org/2000/svg">
<path d="M47.5862 17.2306V55.8621C47.5861 56.9595 47.1501 58.0119 46.3741 58.7879C45.5981 59.5639 44.5457 59.9999 43.4483 60H4.13793C3.04053 59.9999 1.98811 59.5639 1.21212 58.7879C0.436141 58.0119 0.00013715 56.9595 0 55.8621V4.13793C0.00013715 3.04053 0.436141 1.98811 1.21212 1.21212C1.98811 0.43614 3.04053 0.00013715 4.13793 0H30.3556C31.4525 0.00107971 32.5043 0.436757 33.2806 1.21164L46.3746 14.3056C47.1495 15.0819 47.5852 16.1337 47.5862 17.2306Z" fill="#C8DBF7"/>
<path d="M17.5862 22.7585H25.862V24.8275H17.5862V22.7585Z" fill="#A2B8E0"/>
<path d="M5.17261 22.7585H14.483V24.8275H5.17261V22.7585Z" fill="#A2B8E0"/>
<path d="M22.7585 26.8965H40.3448V28.9654H22.7585V26.8965Z" fill="#A2B8E0"/>
<path d="M11.3794 26.8965H19.6553V28.9654H11.3794V26.8965Z" fill="#A2B8E0"/>
<path d="M5.17236 26.8965H9.31029V28.9654H5.17236V26.8965Z" fill="#A2B8E0"/>
<path d="M15.5173 33.1033H30.0001V35.1722H15.5173V33.1033Z" fill="#A2B8E0"/>
<path d="M35.1724 40.3447H40.3448V42.4137H35.1724V40.3447Z" fill="#A2B8E0"/>
<path d="M19.6553 40.3447H32.0691V42.4137H19.6553V40.3447Z" fill="#A2B8E0"/>
<path d="M5.17236 40.3447H16.5517V42.4137H5.17236V40.3447Z" fill="#A2B8E0"/>
<path d="M27.9312 44.4827H40.3449V46.5516H27.9312V44.4827Z" fill="#A2B8E0"/>
<path d="M12.4138 44.4827H24.8276V46.5516H12.4138V44.4827Z" fill="#A2B8E0"/>
<path d="M5.17236 44.4827H9.31029V46.5516H5.17236V44.4827Z" fill="#A2B8E0"/>
<path d="M36.2068 48.6206H40.3447V50.6896H36.2068V48.6206Z" fill="#A2B8E0"/>
<path d="M17.5862 48.6206H33.1034V50.6896H17.5862V48.6206Z" fill="#A2B8E0"/>
<path d="M5.17236 48.6206H14.4827V50.6896H5.17236V48.6206Z" fill="#A2B8E0"/>
<path d="M37.2415 52.7585H40.3449V54.8275H37.2415V52.7585Z" fill="#A2B8E0"/>
<path d="M23.7932 52.7585H34.138V54.8275H23.7932V52.7585Z" fill="#A2B8E0"/>
<path d="M5.17236 52.7585H20.6896V54.8275H5.17236V52.7585Z" fill="#A2B8E0"/>
<path d="M47.2137 15.5171H36.2068C35.1094 15.517 34.057 15.081 33.281 14.305C32.505 13.529 32.069 12.4766 32.0688 11.3792V0.372314C32.5199 0.576873 32.9304 0.861172 33.2805 1.21154L46.3744 14.3055C46.7248 14.6556 47.0091 15.0661 47.2137 15.5171Z" fill="#E8F2FF"/>
<path d="M18.6206 9.3103V15.5172L14.4826 18.6206H10.3447L6.20679 15.5172V9.3103H18.6206Z" fill="#F6BB00"/>
<path d="M12.4137 13.4482L18.6206 9.31029L12.4137 5.17236L6.20679 9.31029L12.4137 13.4482Z" fill="#DE9400"/>
</svg>
